0
SECTION
2
HEADER
9
$INSUNITS
70
4
9
$ACADVER
1
AC1014
9
$HANDSEED
5
FFFF
0
ENDSEC
0
SECTION
2
TABLES
0
TABLE
2
VPORT
5
8
100
AcDbSymbolTable
0
ENDTAB
0
TABLE
2
LTYPE
5
5
100
AcDbSymbolTable
70
2
0
LTYPE
5
14
100
AcDbSymbolTableRecord
100
AcDbLinetypeTableRecord
2
BYBLOCK
70
0
0
LTYPE
5
15
100
AcDbSymbolTableRecord
100
AcDbLinetypeTableRecord
2
BYLAYER
70
0
0
ENDTAB
0
TABLE
2
LAYER
5
2
100
AcDbSymbolTable
70
3
0
LAYER
5
50
100
AcDbSymbolTableRecord
100
AcDbLayerTableRecord
2
0
70
0
6
CONTINUOUS
0
LAYER
5
51
100
AcDbSymbolTableRecord
100
AcDbLayerTableRecord
2
CUTOUTS
70
0
62
1
6
CONTINUOUS
0
LAYER
5
52
100
AcDbSymbolTableRecord
100
AcDbLayerTableRecord
2
PERIMETER
70
0
62
5
6
CONTINUOUS
0
ENDTAB
0
TABLE
2
STYLE
5
3
100
AcDbSymbolTable
70
1
0
STYLE
5
11
100
AcDbSymbolTableRecord
100
AcDbTextStyleTableRecord
2
STANDARD
70
0
0
ENDTAB
0
TABLE
2
VIEW
5
6
100
AcDbSymbolTable
0
ENDTAB
0
TABLE
2
UCS
5
7
100
AcDbSymbolTable
0
ENDTAB
0
TABLE
2
APPID
5
9
100
AcDbSymbolTable
70
1
0
APPID
5
12
100
AcDbSymbolTableRecord
100
AcDbRegAppTableRecord
2
ACAD
70
0
0
ENDTAB
0
TABLE
2
DIMSTYLE
5
A
100
AcDbSymbolTable
0
ENDTAB
0
TABLE
2
BLOCK_RECORD
5
1
100
AcDbSymbolTable
70
2
0
BLOCK_RECORD
5
1F
100
AcDbSymbolTableRecord
100
AcDbBlockTableRecord
2
*MODEL_SPACE
0
BLOCK_RECORD
5
1B
100
AcDbSymbolTableRecord
100
AcDbBlockTableRecord
2
*PAPER_SPACE
0
ENDTAB
0
ENDSEC
0
SECTION
2
BLOCKS
0
BLOCK
5
20
100
AcDbEntity
100
AcDbBlockBegin
2
*MODEL_SPACE
0
ENDBLK
5
21
100
AcDbEntity
100
AcDbBlockEnd
0
BLOCK
5
1C
100
AcDbEntity
100
AcDbBlockBegin
2
*PAPER_SPACE
0
ENDBLK
5
1D
100
AcDbEntity
100
AcDbBlockEnd
0
ENDSEC
0
SECTION
2
ENTITIES
0
CIRCLE
5
100
100
AcDbEntity
8
CUTOUTS
100
AcDbCircle
10
-5.8999999999970392
20
-30.567478692537378
30
0
40
1.0249999999999999
210
0
220
0
230
1
0
CIRCLE
5
101
100
AcDbEntity
8
CUTOUTS
100
AcDbCircle
10
-17.749999999999837
20
-26.067478692553809
30
0
40
1.0250000000000004
210
0
220
0
230
1
0
CIRCLE
5
102
100
AcDbEntity
8
CUTOUTS
100
AcDbCircle
10
-17.74999999999994
20
-8.0674786925537738
30
0
40
1.0250000000000004
210
0
220
0
230
1
0
CIRCLE
5
103
100
AcDbEntity
8
CUTOUTS
100
AcDbCircle
10
-7.3660000000001693
20
27.932521307446301
30
0
40
1.0679999999999901
210
0
220
0
230
1
0
CIRCLE
5
104
100
AcDbEntity
8
CUTOUTS
100
AcDbCircle
10
7.3659999999999428
20
27.932521307446343
30
0
40
1.0679999999999901
210
0
220
0
230
1
0
CIRCLE
5
105
100
AcDbEntity
8
CUTOUTS
100
AcDbCircle
10
17.749999999999932
20
-8.0674786925536637
30
0
40
1.0250000000000004
210
0
220
0
230
1
0
CIRCLE
5
106
100
AcDbEntity
8
CUTOUTS
100
AcDbCircle
10
17.74999999999994
20
-26.067478692553703
30
0
40
1.0250000000000004
210
0
220
0
230
1
0
CIRCLE
5
107
100
AcDbEntity
8
CUTOUTS
100
AcDbCircle
10
5.8999999999971697
20
-30.567478692537343
30
0
40
1.0250000000000004
210
0
220
0
230
1
0
LINE
5
108
100
AcDbEntity
8
CUTOUTS
100
AcDbLine
10
-4.425000000000038
20
-7.8924786925382868
30
0
11
-4.4250000000000647
21
7.857521307462334
31
0
0
LINE
5
109
100
AcDbEntity
8
CUTOUTS
100
AcDbLine
10
-4.4250000000000647
20
7.857521307462334
30
0
11
4.4249999999999519
21
7.857521307462334
31
0
0
LINE
5
10A
100
AcDbEntity
8
CUTOUTS
100
AcDbLine
10
4.4249999999999519
20
7.857521307462334
30
0
11
4.4249999999999545
21
-7.8924786925382744
31
0
0
LINE
5
10B
100
AcDbEntity
8
CUTOUTS
100
AcDbLine
10
4.4249999999999545
20
-7.8924786925382744
30
0
11
-4.425000000000038
21
-7.8924786925382868
31
0
0
LINE
5
10C
100
AcDbEntity
8
CUTOUTS
100
AcDbLine
10
-7.5749999999999362
20
-7.8924786925383117
30
0
11
-10.42499999999994
21
-7.8924786925383303
31
0
0
LINE
5
10D
100
AcDbEntity
8
CUTOUTS
100
AcDbLine
10
-10.42499999999994
20
-7.8924786925383303
30
0
11
-10.425000000000093
21
18.857521307456064
31
0
0
LINE
5
10E
100
AcDbEntity
8
CUTOUTS
100
AcDbLine
10
-10.425000000000093
20
18.857521307456064
30
0
11
-7.5750000000000961
21
18.85752130746155
31
0
0
LINE
5
10F
100
AcDbEntity
8
CUTOUTS
100
AcDbLine
10
-7.5750000000000961
20
18.85752130746155
30
0
11
-7.5750000000000872
21
17.457521307435545
31
0
0
LINE
5
110
100
AcDbEntity
8
CUTOUTS
100
AcDbLine
10
-7.5750000000000872
20
17.457521307435545
30
0
11
-5.8999999999937733
21
17.457521307462297
31
0
0
ARC
5
111
100
AcDbEntity
8
CUTOUTS
100
AcDbCircle
10
-5.8999999999949102
20
16.432521307462299
30
0
40
1.0250000000000004
210
-0
220
0
230
1
100
AcDbArc
50
-89.999999999996035
51
90.000000000003965
0
LINE
5
112
100
AcDbEntity
8
CUTOUTS
100
AcDbLine
10
-5.8999999999948392
20
15.407521307462297
30
0
11
-7.5750000000000739
21
15.407521307455037
31
0
0
LINE
5
113
100
AcDbEntity
8
CUTOUTS
100
AcDbLine
10
-7.5750000000000739
20
15.407521307455037
30
0
11
-7.5749999999999362
21
-7.8924786925383117
31
0
0
LINE
5
114
100
AcDbEntity
8
CUTOUTS
100
AcDbLine
10
7.5749999999999273
20
18.857521307461589
30
0
11
10.424999999999919
21
18.857521307456125
31
0
0
LINE
5
115
100
AcDbEntity
8
CUTOUTS
100
AcDbLine
10
10.424999999999919
20
18.857521307456125
30
0
11
10.424999999999931
21
-7.8924786925382628
31
0
0
LINE
5
116
100
AcDbEntity
8
CUTOUTS
100
AcDbLine
10
10.424999999999931
20
-7.8924786925382628
30
0
11
7.5749999999999318
21
-7.8924786925382637
31
0
0
LINE
5
117
100
AcDbEntity
8
CUTOUTS
100
AcDbLine
10
7.5749999999999318
20
-7.8924786925382637
30
0
11
7.5749999999999273
21
15.407521307455085
31
0
0
LINE
5
118
100
AcDbEntity
8
CUTOUTS
100
AcDbLine
10
7.5749999999999273
20
15.407521307455085
30
0
11
5.8999999999950177
21
15.407521307462337
31
0
0
ARC
5
119
100
AcDbEntity
8
CUTOUTS
100
AcDbCircle
10
5.8999999999947512
20
16.432521307462334
30
0
40
1.0249999999999959
210
0
220
-0
230
1
100
AcDbArc
50
89.999999999997016
51
269.99999999999704
0
LINE
5
11A
100
AcDbEntity
8
CUTOUTS
100
AcDbLine
10
5.8999999999948045
20
17.457521307462329
30
0
11
7.5749999999999273
21
17.457521307435584
31
0
0
LINE
5
11B
100
AcDbEntity
8
CUTOUTS
100
AcDbLine
10
7.5749999999999273
20
17.457521307435584
30
0
11
7.5749999999999273
21
18.857521307461589
31
0
0
LINE
5
11C
100
AcDbEntity
8
PERIMETER
100
AcDbLine
10
-30.537499999999845
20
-25.221105732432566
30
0
11
-25.03750000000035
21
-28.396532212974833
31
0
0
ARC
5
11D
100
AcDbEntity
8
PERIMETER
100
AcDbCircle
10
-5.1070259132757201e-14
20
14.969689881530774
30
0
40
50.07500000000001
210
0
220
0
230
1
100
AcDbArc
50
239.99999999999963
51
300.00000000000097
0
LINE
5
11E
100
AcDbEntity
8
PERIMETER
100
AcDbLine
10
25.03750000000073
20
-28.396532212974549
30
0
11
30.537499999999941
21
-25.221105732432374
31
0
0
ARC
5
11F
100
AcDbEntity
8
PERIMETER
100
AcDbCircle
10
29.999999999999947
20
-24.290128423364116
30
0
40
1.0749999999999871
210
-0
220
0
230
1
100
AcDbArc
50
-59.999999999999879
51
0
0
LINE
5
120
100
AcDbEntity
8
PERIMETER
100
AcDbLine
10
31.074999999999932
20
-24.290128423364116
30
0
11
31.074999999999925
21
-9.8448289617433442
31
0
0
ARC
5
121
100
AcDbEntity
8
PERIMETER
100
AcDbCircle
10
29.999999999999972
20
-9.8448289617433424
30
0
40
1.0749999999999504
210
-0
220
0
230
1
100
AcDbArc
50
0
51
60.000000000000156
0
LINE
5
122
100
AcDbEntity
8
PERIMETER
100
AcDbLine
10
30.537499999999945
20
-8.9138516526751097
30
0
11
25.037500000000598
21
-5.7384251721324553
31
0
0
ARC
5
123
100
AcDbEntity
8
PERIMETER
100
AcDbCircle
10
35.00000000000167
20
11.517130998273903
30
0
40
19.925000000001759
210
0
220
0
230
1
100
AcDbArc
50
180
51
239.99999999999932
0
LINE
5
124
100
AcDbEntity
8
PERIMETER
100
AcDbLine
10
15.074999999999912
20
11.51713099827389
30
0
11
15.074999999999896
21
27.112861194938045
31
0
0
ARC
5
125
100
AcDbEntity
8
PERIMETER
100
AcDbCircle
10
9.9999999999836913
20
27.112861194938034
30
0
40
5.075000000016205
210
0
220
-0
230
1
100
AcDbArc
50
0
51
48.189685104249158
0
ARC
5
126
100
AcDbEntity
8
PERIMETER
100
AcDbCircle
10
-9.0042553872289044e-14
20
15.932521307446322
30
0
40
20.075000000000006
210
0
220
-0
230
1
100
AcDbArc
50
48.189685104249151
51
131.81031489575111
0
ARC
5
127
100
AcDbEntity
8
PERIMETER
100
AcDbCircle
10
-9.9999999999839346
20
27.112861194937992
30
0
40
5.0750000000161979
210
0
220
0
230
1
100
AcDbArc
50
131.81031489575102
51
180
0
LINE
5
128
100
AcDbEntity
8
PERIMETER
100
AcDbLine
10
-15.075000000000129
20
27.112861194937956
30
0
11
-15.075000000000038
21
11.517130998273796
31
0
0
ARC
5
129
100
AcDbEntity
8
PERIMETER
100
AcDbCircle
10
-35.000000000001812
20
11.5171309982737
30
0
40
19.925000000001781
210
-0
220
0
230
1
100
AcDbArc
50
-59.999999999999019
51
0
0
LINE
5
12A
100
AcDbEntity
8
PERIMETER
100
AcDbLine
10
-25.037500000000623
20
-5.7384251721326063
30
0
11
-30.537499999999955
21
-8.9138516526752927
31
0
0
ARC
5
12B
100
AcDbEntity
8
PERIMETER
100
AcDbCircle
10
-29.999999999999972
20
-9.8448289617435218
30
0
40
1.0749999999999535
210
0
220
0
230
1
100
AcDbArc
50
120.00000000000037
51
180
0
LINE
5
12C
100
AcDbEntity
8
PERIMETER
100
AcDbLine
10
-31.074999999999928
20
-9.8448289617435378
30
0
11
-31.074999999999843
21
-24.290128423364305
31
0
0
ARC
5
12D
100
AcDbEntity
8
PERIMETER
100
AcDbCircle
10
-29.999999999999844
20
-24.290128423364298
30
0
40
1.0749999999999993
210
0
220
0
230
1
100
AcDbArc
50
180
51
239.99999999999983
0
ENDSEC
0
SECTION
2
OBJECTS
0
DICTIONARY
5
C
100
AcDbDictionary
3
ACAD_GROUP
350
D
3
ACAD_MLINESTYLE
350
17
0
DICTIONARY
5
D
100
AcDbDictionary
0
DICTIONARY
5
1A
330
C
100
AcDbDictionary
0
DICTIONARY
5
17
100
AcDbDictionary
0
ENDSEC
0
EOF
